<svg width="145" height="74" viewBox="0 0 145 74" fill="none" xmlns="http://www.w3.org/2000/svg">
<g clip-path="url(#clip0_383_4)">
<path d="M45.027 66.8051H43.5796V73.697H40.0957V54.6035H45.027C48.8052 54.6035 49.9337 56.9371 49.9337 60.6641C49.9337 64.4183 48.8052 66.8051 45.027 66.8051ZM45.0517 58.0362H43.5796V63.3726H45.0517C46.3764 63.3726 46.45 61.8976 46.45 60.691C46.45 59.4844 46.3764 58.0366 45.0517 58.0366V58.0362Z" fill="white"/>
<path d="M60.4818 72.0072C59.6721 73.0528 58.5926 73.9111 56.63 73.9111C54.6675 73.9111 53.6368 73.0528 52.8273 72.0072C51.4288 70.1834 51.5269 66.7242 51.5269 64.1496C51.5269 61.575 51.4288 58.1164 52.8273 56.2926C53.6368 55.2466 54.6671 54.3887 56.63 54.3887C58.593 54.3887 59.6721 55.2466 60.4818 56.2926C61.8801 58.116 61.782 61.5754 61.782 64.1496C61.782 66.7238 61.8801 70.1834 60.4818 72.0072ZM57.8322 58.5719C57.6357 58.1429 57.2677 57.8212 56.63 57.8212C55.9923 57.8212 55.6731 58.1437 55.4768 58.5719C55.0603 59.4568 55.0106 61.8433 55.0106 64.1498C55.0106 66.4563 55.0599 68.8428 55.4768 69.7277C55.6731 70.1568 55.9922 70.4784 56.63 70.4784C57.2679 70.4784 57.6357 70.1568 57.8322 69.7277C58.2488 68.8426 58.2982 66.4559 58.2982 64.1498C58.2982 61.8437 58.2498 59.4568 57.8322 58.5719Z" fill="white"/>
<path d="M70.7382 73.697L68.6032 66.2687H67.4505V73.697H63.9668V54.6035H68.9471C72.7499 54.6035 73.8048 56.7757 73.8048 60.4227C73.8048 62.4607 73.5098 64.2842 71.8176 65.4373L74.3691 73.697H70.7382ZM68.9226 58.0366H67.4505V62.8366H68.9224C70.2473 62.8366 70.3209 61.5228 70.3209 60.4231C70.3209 59.3235 70.2475 58.0366 68.9226 58.0366Z" fill="white"/>
<path d="M83.5185 73.697L79.814 64.3646V73.697H76.3301V54.6035H79.3723L83.0034 63.9357V54.6035H86.487V73.697H83.5185Z" fill="white"/>
<path d="M89.1855 73.697V54.6035H92.6691V73.697H89.1855Z" fill="white"/>
<path d="M103.342 72.5434C102.459 73.4552 101.404 73.9111 99.9562 73.9111C97.9935 73.9111 96.963 73.0528 96.1534 72.0072C94.755 70.1834 94.853 66.7507 94.853 64.1765C94.853 61.6024 94.755 58.116 96.1534 56.2926C96.963 55.2466 97.9933 54.3887 99.9562 54.3887C101.404 54.3887 102.459 54.844 103.342 55.7562C104.25 56.695 104.814 58.1964 104.887 60.0199H101.403C101.378 59.4837 101.329 58.9474 101.133 58.545C100.937 58.0896 100.593 57.8212 99.9555 57.8212C99.3178 57.8212 98.9986 58.1437 98.8023 58.5719C98.3857 59.4568 98.3361 61.8433 98.3361 64.1498C98.3361 66.4563 98.3852 68.8428 98.8023 69.7277C98.9986 70.1568 99.3175 70.4784 99.9555 70.4784C100.594 70.4784 100.961 70.1834 101.158 69.7277C101.354 69.3253 101.403 68.7891 101.427 68.253H104.911C104.838 70.0764 104.25 71.605 103.342 72.5434Z" fill="white"/>
<path d="M22.2084 43.9559C20.0702 46.1631 17.5166 47.2666 14.0129 47.2666C9.26156 47.2666 6.76734 45.1895 4.80754 42.6578C1.4229 38.2435 1.65982 29.9341 1.65982 23.7019C1.65982 17.4696 1.4229 9.03071 4.80754 4.61697C6.76734 2.08548 9.26156 0.0078125 14.0129 0.0078125C17.5166 0.0078125 20.0705 1.11144 22.2084 3.31869C24.4058 5.59063 25.7718 9.22594 25.9499 13.6397H17.5166C17.4574 12.342 17.3394 11.0437 16.8633 10.07C16.3884 8.9664 15.5566 8.31697 14.0129 8.31697C12.4692 8.31697 11.6968 9.09636 11.2214 10.1347C10.2119 12.2769 10.0931 18.0546 10.0931 23.6374C10.0931 29.2202 10.2119 34.9973 11.2214 37.14C11.6968 38.1782 12.4685 38.9572 14.0129 38.9572C15.5573 38.9572 16.4478 38.2435 16.923 37.14C17.3979 36.1658 17.5166 34.8677 17.576 33.5696H26.0093C25.8312 37.9836 24.4058 41.6841 22.2084 43.9559Z" fill="white"/>
<path d="M74.7693 43.8256C72.8689 45.838 69.6618 47.2659 65.5642 47.2659C61.4069 47.2659 58.3188 45.9678 56.418 43.8901C54.3396 41.6184 53.627 38.3724 53.627 33.6335H62.0601C62.0601 35.5165 62.179 36.8796 62.9509 37.8533C63.4261 38.4375 64.2575 38.9566 65.5642 38.9566C66.8708 38.9566 67.702 38.5671 68.2372 37.7882C68.8311 37.0092 69.0686 35.7756 69.0686 33.8934C69.0686 29.4789 68.4152 28.7001 65.3866 27.3369L60.0406 24.9348C55.7648 22.9875 53.9829 20.5209 53.9829 13.315C53.9829 9.03061 55.2301 5.46038 57.7842 3.05847C59.8035 1.17584 62.3571 0.136719 65.5642 0.136719C69.3055 0.136719 72.0384 1.17546 73.8782 3.05847C76.1944 5.3953 77.1447 9.09568 77.1447 13.7697H68.7117C68.7117 12.1466 68.7117 10.6535 67.9988 9.61477C67.5239 8.90084 66.8113 8.44626 65.5642 8.44626C64.3761 8.44626 63.6044 8.96572 63.1289 9.67946C62.5945 10.4585 62.4164 11.4318 62.4164 12.9903C62.4164 15.9121 62.8915 16.7554 65.3265 17.8589L70.6121 20.1957C75.9569 22.5976 77.5014 25.1943 77.5014 33.5686C77.5014 38.243 76.9669 41.489 74.7693 43.8256Z" fill="white"/>
<path d="M79.8164 46.7479V0.527344H88.2497V46.7479H79.8164Z" fill="white"/>
<path d="M109.213 46.7479L100.246 24.1565V46.7479H91.8125V0.527344H99.1768L107.966 23.1178V0.527344H116.4V46.7479H109.213Z" fill="white"/>
<path d="M140.393 42.6578C138.433 45.1895 135.82 47.2666 131.069 47.2666C126.318 47.2666 123.823 45.1895 121.864 42.6578C118.48 38.2435 118.717 29.8691 118.717 23.6374C118.717 17.4057 118.478 9.03071 121.864 4.61697C123.823 2.08548 126.317 0.0078125 131.069 0.0078125C135.82 0.0078125 138.433 2.08548 140.393 4.61697C143.777 9.03128 143.54 17.4053 143.54 23.6374C143.54 29.8694 143.778 38.2435 140.393 42.6578ZM133.98 10.1347C133.505 9.09636 132.614 8.31697 131.069 8.31697C129.525 8.31697 128.753 9.09636 128.278 10.1347C127.268 12.2769 127.15 18.0546 127.15 23.6374C127.15 29.2202 127.268 34.9973 128.278 37.14C128.753 38.1782 129.525 38.9572 131.069 38.9572C132.613 38.9572 133.505 38.1782 133.98 37.14C134.989 34.9973 135.108 29.2204 135.108 23.6374C135.108 18.0544 134.988 12.2769 133.98 10.1347Z" fill="white"/>
<path d="M43.4699 0.527344H35.1558L24.2871 46.7479H33.0768L34.4428 39.542H44.1824L45.5484 46.7479H54.338L43.4699 0.527344ZM34.7955 34.927L33.2925 35.5557V20.3034C33.2057 17.7072 34.5294 16.2132 36.249 15.9698C35.1912 17.0785 34.7955 17.9429 34.7955 19.1472V34.927ZM37.2696 35.1973L35.7664 35.8396V20.1412C35.6737 17.4707 36.9974 15.9367 38.723 15.6859C37.6653 16.8216 37.2696 17.7141 37.2696 18.9513V35.1973ZM39.6013 18.4307V35.177L38.1044 35.8388V19.6612C38.0114 16.9028 39.3415 15.3207 41.061 15.064C39.886 15.9367 39.6013 17.1529 39.6013 18.4307ZM45.2854 23.7175C45.2854 24.8737 44.135 26.699 41.4445 26.6518C43.6464 25.5971 43.8257 24.2449 43.8691 22.4196V16.4904C43.8691 14.3878 42.4588 14.7663 42.1495 14.7191C43.733 13.9551 45.236 15.2735 45.2854 16.7681V23.7175Z" fill="white"/>
</g>
<defs>
<clipPath id="clip0_383_4">
<rect width="145" height="74" fill="white"/>
</clipPath>
</defs>
</svg>
